#!OML:ASF E:\emotionWalksFemale\Project 1\Capture day 1\Session 1\Female1.ASF
:FULLY-SPECIFIED
:DEGREES
354
root 9.73313 15.6409 11.2668 358.308 -82.2241 5.35149
lowerback 8.10515 4.30747 2.81713
upperback -4.96374 6.02616 -0.988028
thorax -9.43083 2.69157 -3.5776
lowerneck -3.19966 -7.81595 -12.3422
upperneck 1.48935 -10.1061 7.36671
head 1.95449 -5.0119 3.8275
rclavicle 1.55363e-014 -3.08116e-015
rhumerus -4.51869 16.0495 -66.7076
rradius 102.611
rwrist 7.85427
rhand -2.18589 -64.1564
rfingers 7.12502
rthumb 23.4951 452.742
lclavicle 1.55363e-014 -3.08116e-015
lhumerus -74.5173 -0.258897 51.5049
lradius 38.7697
lwrist -7.23043
lhand 23.1979 -22.528
lfingers 7.12502
lthumb 47.5017 -0.0859531
rfemur -4.31667 20.1838 26.3403
rtibia 15.0092
rfoot -19.6189 -27.4531
rtoes 4.02484
lfemur -13.0313 -15.7825 -20.72
ltibia 25.4044
lfoot -18.6367 12.7796
ltoes -34.8063
355
root 9.74539 15.6298 11.2686 359.091 -82.5189 4.03831
lowerback 8.90926 4.35953 2.95517
upperback -4.85048 6.15554 -0.828947
thorax -9.7759 2.73894 -3.57567
lowerneck -3.43504 -7.80278 -12.138
upperneck 1.55563 -10.0665 7.2326
head 1.99091 -4.98941 3.74794
rclavicle -1.717e-014 -1.46107e-014
rhumerus -5.62654 15.7117 -67.9614
rradius 103.866
rwrist 9.04164
rhand -3.0874 -61.9549
rfingers 7.12502
rthumb 22.6301 450.648
lclavicle -1.717e-014 -1.46107e-014
lhumerus -75.1764 1.34928 50.6427
lradius 37.815
lwrist -7.41509
lhand 22.7479 -22.6433
lfingers 7.12502
lthumb 47.0858 -0.0149891
rfemur -3.88832 19.9024 26.6818
rtibia 15.0349
rfoot -18.6009 -27.0057
rtoes 3.34899
lfemur -12.1073 -16.1793 -20.7263
ltibia 24.9085
lfoot -18.8945 13.1338
ltoes -32.134
356
root 9.7606 15.6325 11.2728 359.3 -82.8015 3.43175
lowerback 9.51995 4.4326 3.19014
upperback -4.69681 6.31182 -0.77332
thorax -9.93773 2.79607 -3.72139
lowerneck -3.60349 -7.83916 -12.0286
upperneck 1.46795 -10.0961 7.1969
head 1.9872 -4.99989 3.71406
rclavicle -5.45975e-014 -4.57205e-015
rhumerus -6.88754 15.4159 -69.261
rradius 105.035
rwrist 10.286
rhand -3.13029 -62.1522
rfingers 7.12502
rthumb 22.5889 450.851
lclavicle -5.45975e-014 -4.57205e-015
lhumerus -75.5283 3.34076 49.1734
lradius 36.6359
lwrist -8.27682
lhand 21.9229 -22.9623
lfingers 7.12502
lthumb 46.322 -0.00305217
rfemur -3.65407 18.9387 26.8028
rtibia 14.9488
rfoot -17.1883 -26.1092
rtoes 2.00119
lfemur -11.5033 -16.7972 -20.7778
ltibia 24.8111
lfoot -19.992 12.3757
ltoes -20.5847
357
root 9.77234 15.629 11.2712 360.148 -82.917 2.47875
lowerback 9.70321 4.48903 3.46148
upperback -4.57919 6.4322 -0.760853
thorax -9.87911 2.84072 -3.88753
lowerneck -3.6974 -7.93458 -11.9476
upperneck 1.24319 -10.2093 7.18812
head 1.94118 -5.05156 3.69356
rclavicle -2.70099e-014 2.98177e-015
rhumerus -8.47514 15.0149 -70.5983
rradius 106.151
rwrist 11.6708
rhand -3.62201 -62.3202
rfingers 7.12502
rthumb 22.1169 451.075
lclavicle -2.70099e-014 2.98177e-015
lhumerus -75.7572 5.44287 47.5427
lradius 35.2929
lwrist -9.8042
lhand 19.754 -23.4096
lfingers 7.12502
lthumb 44.3059 0.358281
rfemur -3.60165 18.0316 26.8785
rtibia 14.6956
rfoot -16.4792 -25.1373
rtoes 1.96651
lfemur -11.5736 -16.9389 -20.777
ltibia 25.1029
lfoot -19.595 13.1693
ltoes -22.9747
358
root 9.77863 15.6211 11.2666 362.852 -82.7855 -0.0991599
lowerback 9.54281 4.56673 3.8759
upperback -4.5307 6.59103 -0.706964
thorax -9.67934 2.9021 -4.06302
lowerneck -3.69532 -8.0778 -12.0389
upperneck 0.970036 -10.393 7.326
head 1.88878 -5.13831 3.74362
rclavicle -4.3627e-014 -8.54774e-015
rhumerus -10.3856 14.2833 -71.8913
rradius 106.99
rwrist 13.2005
rhand -3.96667 -62.1663
rfingers 7.12502
rthumb 21.786 450.96
lclavicle -4.3627e-014 -8.54774e-015
lhumerus -75.7935 7.45383 45.8859
lradius 33.9514
lwrist -11.5268
lhand 17.8862 -23.7851
lfingers 7.12502
lthumb 42.5611 0.614108
rfemur -3.75565 17.6519 27.1392
rtibia 14.5426
rfoot -16.2411 -24.6692
rtoes 2.57917
lfemur -12.0611 -17.0502 -20.4388
ltibia 25.5551
lfoot -18.9003 14.2021
ltoes -29.1473
359
root 9.78555 15.6128 11.2601 365.173 -82.4226 -2.39797
lowerback 9.46716 4.5988 4.25607
upperback -4.44805 6.68333 -0.676214
thorax -9.49766 2.93324 -4.23946
lowerneck -3.6871 -8.22782 -12.1075
upperneck 0.719291 -10.5894 7.50217
head 1.84485 -5.23135 3.80067
rclavicle -1.2306e-014 -7.95139e-015
rhumerus -12.4789 13.594 -73.206
rradius 107.534
rwrist 14.4135
rhand -4.68844 -62.0102
rfingers 7.12502
rthumb 21.0927 450.883
lclavicle -1.2306e-014 -7.95139e-015
lhumerus -75.6031 9.42325 44.2192
lradius 32.6582
lwrist -13.0549
lhand 16.8645 -23.979
lfingers 7.12502
lthumb 41.6037 0.742419
rfemur -3.84547 17.6624 27.4664
rtibia 14.5846
rfoot -16.0293 -24.7742
rtoes 3.07333
lfemur -12.4588 -17.4869 -20.0676
ltibia 25.9983
lfoot -18.621 14.5926
ltoes -31.0973
360
root 9.79147 15.6059 11.248 364.479 -81.8768 -1.94502
lowerback 9.60628 4.52245 4.17265
upperback -4.26202 6.57171 -0.681517
thorax -9.39305 2.89214 -4.18442
lowerneck -3.69315 -8.34416 -12.103
upperneck 0.493213 -10.7419 7.6375
head 1.80066 -5.30307 3.83609
rclavicle 1.27769e-013 2.127e-014
rhumerus -14.8518 13.2908 -74.5927
rradius 107.975
rwrist 15.2714
rhand -6.19617 -62.1087
rfingers 7.12502
rthumb 19.6438 451.136
lclavicle 1.27769e-013 2.127e-014
lhumerus -75.4832 11.3957 42.8214
lradius 31.4745
lwrist -14.9665
lhand 15.4413 -24.3426
lfingers 7.12502
lthumb 40.2669 0.802441
rfemur -3.55979 17.8117 27.565
rtibia 14.593
rfoot -15.9011 -25.2305
rtoes 3.67027
lfemur -12.5582 -17.8631 -20.1704
ltibia 26.388
lfoot -18.3346 14.6952
ltoes -31.5905
361
root 9.79423 15.6074 11.2341 361.908 -81.1619 0.365149
lowerback 9.8116 4.36962 3.52976
upperback -4.13619 6.29148 -0.606851
thorax -9.47579 2.79715 -3.72095
lowerneck -3.61505 -8.39552 -12.1862
upperneck 0.317204 -10.8134 7.73944
head 1.75295 -5.3373 3.88208
rclavicle -8.95152e-015 7.95139e-016
rhumerus -17.5276 13.2523 -75.9736
rradius 108.171
rwrist 15.8528
rhand -7.99651 -62.367
rfingers 7.12502
rthumb 17.9122 451.562
lclavicle -8.95152e-015 7.95139e-016
lhumerus -75.812 13.4906 41.5381
lradius 30.7207
lwrist -17.7841
lhand 14.6777 -24.7049
lfingers 7.12502
lthumb 39.5482 0.655848
rfemur -3.18009 18.122 27.4038
rtibia 14.6047
rfoot -15.8757 -26.1204
rtoes 4.00947
lfemur -12.4752 -18.4386 -20.5314
ltibia 26.6163
lfoot -18.8345 13.8613
ltoes -25.2869
362
root 9.79418 15.6158 11.221 359.631 -80.3885 2.46929
lowerback 10.0132 4.26993 2.76326
upperback -4.12627 6.0692 -0.484363
thorax -9.69216 2.73342 -3.15206
lowerneck -3.38053 -8.475 -12.3945
upperneck 0.245407 -10.9379 7.80997
head 1.72134 -5.40254 3.93854
rclavicle 1.7344e-014 -2.18663e-015
rhumerus -20.4112 13.0239 -77.3046
rradius 107.966
rwrist 16.2379
rhand -9.36829 -62.5859
rfingers 7.12502
rthumb 16.5919 451.897
lclavicle 1.7344e-014 -2.18663e-015
lhumerus -76.3114 15.4551 40.6289
lradius 30.5054
lwrist -21.0891
lhand 15.0472 -24.8038
lfingers 7.12502
lthumb 39.8961 0.453558
rfemur -2.91004 18.3724 27.1926
rtibia 14.6964
rfoot -16.0249 -27.0126
rtoes 4.26672
lfemur -12.2879 -19.3265 -20.8073
ltibia 26.6197
lfoot -19.7759 12.3972
ltoes -13.802
